<svg width="235" height="235" viewBox="0 0 235 235" fill="none" xmlns="http://www.w3.org/2000/svg">
<g filter="url(#filter0_n_1_2)">
<rect x="19" y="49" width="198" height="138" rx="14" fill="#286298"/>
</g>
<g filter="url(#filter1_i_1_2)">
<circle cx="38" cy="68" r="6" fill="#464849"/>
<circle cx="38" cy="171" r="6" fill="#464849"/>
<circle cx="199" cy="68" r="6" fill="#464849"/>
<circle cx="199" cy="171" r="6" fill="#464849"/>
</g>
<g filter="url(#filter2_d_1_2)">
<path d="M115.5 71C80.1666 75.1667 11.0966 130.451 46.5 121C164.5 89.5 225 198 205.5 107" stroke="#FF0000" stroke-width="2" stroke-linecap="round"/>
<path d="M113.818 74C78.4847 78.1667 9.41467 133.451 44.8181 124C162.818 92.5 223.318 201 203.818 110" stroke="#FFE100" stroke-width="2" stroke-linecap="round"/>
<path d="M110.818 77C75.4847 81.1667 6.41467 136.451 41.8181 127C159.818 95.5 220.318 204 200.818 113" stroke="#00FF0D" stroke-width="2" stroke-linecap="round"/>
<path d="M107.818 80C72.4847 84.1667 3.41467 139.451 38.8181 130C156.818 98.5 217.318 207 197.818 116" stroke="#00D5FF" stroke-width="2" stroke-linecap="round"/>
<path d="M104.818 83C69.4847 87.1667 0.414665 142.451 35.8181 133C153.818 101.5 214.318 210 194.818 119" stroke="#9100FF" stroke-width="2" stroke-linecap="round"/>
</g>
<g filter="url(#filter3_d_1_2)">
<path d="M54.4196 117.714H61.2768V124.571H54.4196V117.714ZM61.2768 117.714H68.1339V124.571H61.2768V117.714ZM68.1339 117.714H74.9911V124.571H68.1339V117.714ZM74.9911 117.714H81.8482V124.571H74.9911V117.714ZM61.2768 124.571H68.1339V131.429H61.2768V124.571ZM54.4196 124.571H61.2768V131.429H54.4196V124.571ZM68.1339 124.571H74.9911V131.429H68.1339V124.571ZM74.9911 124.571H81.8482V131.429H74.9911V124.571ZM81.8482 131.429H88.7054V138.286H81.8482V131.429ZM88.7054 124.571H95.5625V131.429H88.7054V124.571ZM81.8482 124.571H88.7054V131.429H81.8482V124.571ZM88.7054 131.429H95.5625V138.286H88.7054V131.429ZM81.8482 138.286H88.7054V145.143H81.8482V138.286ZM88.7054 138.286H95.5625V145.143H88.7054V138.286ZM88.7054 145.143H95.5625V152H88.7054V145.143ZM81.8482 145.143H88.7054V152H81.8482V145.143ZM54.4196 145.143H61.2768V152H54.4196V145.143ZM47.5625 145.143H54.4196V152H47.5625V145.143ZM47.5625 138.286H54.4196V145.143H47.5625V138.286ZM54.4196 138.286H61.2768V145.143H54.4196V138.286ZM54.4196 131.429H61.2768V138.286H54.4196V131.429ZM47.5625 131.429H54.4196V138.286H47.5625V131.429ZM47.5625 124.571H54.4196V131.429H47.5625V124.571ZM47.5625 117.714H54.4196V124.571H47.5625V117.714ZM47.5625 110.857H54.4196V117.714H47.5625V110.857ZM54.4196 110.857H61.2768V117.714H54.4196V110.857ZM47.5625 83.4286H54.4196V90.2857H47.5625V83.4286ZM54.4196 83.4286H61.2768V90.2857H54.4196V83.4286ZM61.2768 83.4286H68.1339V90.2857H61.2768V83.4286ZM68.1339 83.4286H74.9911V90.2857H68.1339V83.4286ZM74.9911 83.4286H81.8482V90.2857H74.9911V83.4286ZM81.8482 83.4286H88.7054V90.2857H81.8482V83.4286ZM81.8482 90.2857H88.7054V97.1429H81.8482V90.2857ZM74.9911 90.2857H81.8482V97.1429H74.9911V90.2857ZM68.1339 90.2857H74.9911V97.1429H68.1339V90.2857ZM61.2768 90.2857H68.1339V97.1429H61.2768V90.2857ZM54.4196 90.2857H61.2768V97.1429H54.4196V90.2857ZM47.5625 90.2857H54.4196V97.1429H47.5625V90.2857ZM47.5625 97.1429H54.4196V104H47.5625V97.1429ZM47.5625 104H54.4196V110.857H47.5625V104ZM54.4196 104H61.2768V110.857H54.4196V104ZM54.4196 97.1429H61.2768V104H54.4196V97.1429ZM81.8482 97.1429H88.7054V104H81.8482V97.1429ZM88.7054 97.1429H95.5625V104H88.7054V97.1429ZM88.7054 90.2857H95.5625V97.1429H88.7054V90.2857ZM88.7054 104H95.5625V110.857H88.7054V104ZM81.8482 104H88.7054V110.857H81.8482V104ZM81.8482 110.857H88.7054V117.714H81.8482V110.857ZM88.7054 110.857H95.5625V117.714H88.7054V110.857ZM81.8482 117.714H88.7054V124.571H81.8482V117.714ZM136.723 145.143H143.58V152H136.723V145.143ZM129.866 138.286H136.723V145.143H129.866V138.286ZM129.866 145.143H136.723V152H129.866V145.143ZM136.723 138.286H143.58V145.143H136.723V138.286ZM136.723 131.429H143.58V138.286H136.723V131.429ZM129.866 131.429H136.723V138.286H129.866V131.429ZM123.009 131.429H129.866V138.286H123.009V131.429ZM116.152 131.429H123.009V138.286H116.152V131.429ZM109.295 131.429H116.152V138.286H109.295V131.429ZM102.438 131.429H109.295V138.286H102.438V131.429ZM102.438 124.571H109.295V131.429H102.438V124.571ZM109.295 124.571H116.152V131.429H109.295V124.571ZM116.152 124.571H123.009V131.429H116.152V124.571ZM123.009 124.571H129.866V131.429H123.009V124.571ZM129.866 124.571H136.723V131.429H129.866V124.571ZM136.723 124.571H143.58V131.429H136.723V124.571ZM136.723 117.714H143.58V124.571H136.723V117.714ZM136.723 110.857H143.58V117.714H136.723V110.857ZM129.866 110.857H136.723V117.714H129.866V110.857ZM129.866 117.714H136.723V124.571H129.866V117.714ZM136.723 83.4286H143.58V90.2857H136.723V83.4286ZM129.866 83.4286H136.723V90.2857H129.866V83.4286ZM129.866 90.2857H136.723V97.1429H129.866V90.2857ZM129.866 97.1429H136.723V104H129.866V97.1429ZM129.866 104H136.723V110.857H129.866V104ZM136.723 104H143.58V110.857H136.723V104ZM136.723 97.1429H143.58V104H136.723V97.1429ZM136.723 90.2857H143.58V97.1429H136.723V90.2857ZM123.009 90.2857H129.866V97.1429H123.009V90.2857ZM123.009 97.1429H129.866V104H123.009V97.1429ZM116.152 97.1429H123.009V104H116.152V97.1429ZM116.152 104H123.009V110.857H116.152V104ZM109.295 110.857H116.152V117.714H109.295V110.857ZM109.295 104H116.152V110.857H109.295V104ZM109.295 117.714H116.152V124.571H109.295V117.714ZM102.438 117.714H109.295V124.571H102.438V117.714ZM102.438 110.857H109.295V117.714H102.438V110.857ZM150.438 83.4286H157.295V90.2857H150.438V83.4286ZM157.295 83.4286H164.152V90.2857H157.295V83.4286ZM164.152 83.4286H171.009V90.2857H164.152V83.4286ZM171.009 83.4286H177.866V90.2857H171.009V83.4286ZM177.866 83.4286H184.723V90.2857H177.866V83.4286ZM184.723 83.4286H191.58V90.2857H184.723V83.4286ZM184.723 90.2857H191.58V97.1429H184.723V90.2857ZM177.866 90.2857H184.723V97.1429H177.866V90.2857ZM171.009 90.2857H177.866V97.1429H171.009V90.2857ZM164.152 90.2857H171.009V97.1429H164.152V90.2857ZM157.295 90.2857H164.152V97.1429H157.295V90.2857ZM150.438 90.2857H157.295V97.1429H150.438V90.2857ZM164.152 97.1429H171.009V104H164.152V97.1429ZM164.152 104H171.009V110.857H164.152V104ZM164.152 110.857H171.009V117.714H164.152V110.857ZM164.152 117.714H171.009V124.571H164.152V117.714ZM164.152 124.571H171.009V131.429H164.152V124.571ZM164.152 131.429H171.009V138.286H164.152V131.429ZM171.009 124.571H177.866V131.429H171.009V124.571ZM171.009 117.714H177.866V124.571H171.009V117.714ZM171.009 110.857H177.866V117.714H171.009V110.857ZM171.009 104H177.866V110.857H171.009V104ZM171.009 97.1429H177.866V104H171.009V97.1429ZM171.009 131.429H177.866V138.286H171.009V131.429ZM171.009 138.286H177.866V145.143H171.009V138.286ZM171.009 145.143H177.866V152H171.009V145.143ZM164.152 145.143H171.009V152H164.152V145.143ZM164.152 138.286H171.009V145.143H164.152V138.286Z" fill="white"/>
</g>
<defs>
<filter id="filter0_n_1_2" x="19" y="49" width="198" height="138" filterUnits="userSpaceOnUse" color-interpolation-filters="sRGB">
<feFlood flood-opacity="0" result="BackgroundImageFix"/>
<feBlend mode="normal" in="SourceGraphic" in2="BackgroundImageFix" result="shape"/>
<feTurbulence type="fractalNoise" baseFrequency="10 10" stitchTiles="stitch" numOctaves="3" result="noise" seed="3452" />
<feColorMatrix in="noise" type="luminanceToAlpha" result="alphaNoise" />
<feComponentTransfer in="alphaNoise" result="coloredNoise1">
<feFuncA type="discrete" tableValues="1 1 1 1 1 1 1 1 1 1 1 1 1 1 1 1 1 1 1 1 1 1 1 1 1 1 1 1 1 1 1 1 1 1 1 1 1 1 1 1 1 1 1 1 1 1 1 1 1 1 1 0 0 0 0 0 0 0 0 0 0 0 0 0 0 0 0 0 0 0 0 0 0 0 0 0 0 0 0 0 0 0 0 0 0 0 0 0 0 0 0 0 0 0 0 0 0 0 0 0 "/>
</feComponentTransfer>
<feComposite operator="in" in2="shape" in="coloredNoise1" result="noise1Clipped" />
<feFlood flood-color="rgba(0, 0, 0, 0.25)" result="color1Flood" />
<feComposite operator="in" in2="noise1Clipped" in="color1Flood" result="color1" />
<feMerge result="effect1_noise_1_2">
<feMergeNode in="shape" />
<feMergeNode in="color1" />
</feMerge>
</filter>
<filter id="filter1_i_1_2" x="32" y="62" width="173" height="119" filterUnits="userSpaceOnUse" color-interpolation-filters="sRGB">
<feFlood flood-opacity="0" result="BackgroundImageFix"/>
<feBlend mode="normal" in="SourceGraphic" in2="BackgroundImageFix" result="shape"/>
<feColorMatrix in="SourceAlpha" type="matrix" values="0 0 0 0 0 0 0 0 0 0 0 0 0 0 0 0 0 0 127 0" result="hardAlpha"/>
<feOffset dy="4"/>
<feGaussianBlur stdDeviation="2"/>
<feComposite in2="hardAlpha" operator="arithmetic" k2="-1" k3="1"/>
<feColorMatrix type="matrix" values="0 0 0 0 0 0 0 0 0 0 0 0 0 0 0 0 0 0 0.25 0"/>
<feBlend mode="normal" in2="shape" result="effect1_innerShadow_1_2"/>
</filter>
<filter id="filter2_d_1_2" x="21" y="69.9999" width="193.107" height="95.2283" filterUnits="userSpaceOnUse" color-interpolation-filters="sRGB">
<feFlood flood-opacity="0" result="BackgroundImageFix"/>
<feColorMatrix in="SourceAlpha" type="matrix" values="0 0 0 0 0 0 0 0 0 0 0 0 0 0 0 0 0 0 127 0" result="hardAlpha"/>
<feOffset dy="4"/>
<feGaussianBlur stdDeviation="2"/>
<feComposite in2="hardAlpha" operator="out"/>
<feColorMatrix type="matrix" values="0 0 0 0 0 0 0 0 0 0 0 0 0 0 0 0 0 0 0.25 0"/>
<feBlend mode="normal" in2="BackgroundImageFix" result="effect1_dropShadow_1_2"/>
<feBlend mode="normal" in="SourceGraphic" in2="effect1_dropShadow_1_2" result="shape"/>
</filter>
<filter id="filter3_d_1_2" x="47.5625" y="82.9286" width="153.518" height="77.5714" filterUnits="userSpaceOnUse" color-interpolation-filters="sRGB">
<feFlood flood-opacity="0" result="BackgroundImageFix"/>
<feColorMatrix in="SourceAlpha" type="matrix" values="0 0 0 0 0 0 0 0 0 0 0 0 0 0 0 0 0 0 127 0" result="hardAlpha"/>
<feOffset dx="5" dy="4"/>
<feGaussianBlur stdDeviation="2.25"/>
<feComposite in2="hardAlpha" operator="out"/>
<feColorMatrix type="matrix" values="0 0 0 0 0 0 0 0 0 0 0 0 0 0 0 0 0 0 0.28 0"/>
<feBlend mode="normal" in2="BackgroundImageFix" result="effect1_dropShadow_1_2"/>
<feBlend mode="normal" in="SourceGraphic" in2="effect1_dropShadow_1_2" result="shape"/>
</filter>
</defs>
</svg>
